<?xml version="1.0" encoding="UTF-8"?>
<svg id="Layer_2" data-name="Layer 2" xmlns="http://www.w3.org/2000/svg" viewBox="0 0 263.62 121.71">
  <defs>
    <style>
      .cls-1 {
        fill: #fff;
      }
    </style>
  </defs>
  <g id="Layer_1-2" data-name="Layer 1">
    <g>
      <path class="cls-1" d="m263.62,69.14V16.8h-16.91l-.56,5.51c-3.05-3.65-8.21-6.6-15.69-6.6-14.19,0-24.62,11.67-24.62,27.32s10.42,27.21,24.62,27.21c7.48,0,12.64-2.89,15.69-6.6l.56,5.51h16.91Zm-17.52-26.12c0,7.09-4.71,12.05-11.48,12.05s-11.48-4.96-11.48-12.05,4.71-12.05,11.48-12.05c6.76.05,11.48,4.96,11.48,12.05h0Zm-62.75,26.12h17.47v-34.03c0-12.76-9.7-19.41-19.96-19.41-6.71,0-13.58,2.73-17.91,8.72-2.83-5.78-9.65-8.72-16.74-8.72-6.27,0-12.7,1.91-16.47,6.6l-.56-5.51h-16.02v52.35h17.47v-29.12c0-5.83,4.49-8.62,8.87-8.62s8.71,2.78,8.71,8.62v29.12h17.46v-29.12c0-5.83,4.6-8.62,8.98-8.62s8.7,2.78,8.7,8.62v29.12h0ZM103.67,30.62v-13.82h-15.03V0h-16.91v16.8h-8.48v13.82h40.42Zm-45.79,37.76V16.8h-16.36l-.55,5.51c-3.1-3.82-8.1-6.6-16.13-6.6C9.81,15.7,0,27.37,0,43.08s9.81,27.16,24.84,27.16c6.6,0,12.86-2.13,15.64-5.78v3c0,7.8-10.15,9.54-16.25,9.54-7.15,0-15.3-1.96-17.74-3.49l-1.66,14.23c4.32,1.96,11.48,4.31,20.96,4.31,14.92,0,32.1-6.38,32.1-23.66h0Zm-17.19-25.41c0,6.98-4.82,11.89-11.37,11.89s-11.75-4.91-11.75-11.89,5.05-11.89,11.75-11.89,11.37,4.85,11.37,11.89h0Zm31.04-6.55v14.07c0,13.96,8.82,19.74,21.01,19.74,4.44,0,10.26-.98,14.14-2.4l.14-14.02c-8.43,1.96-17.82,2.79-17.82-6.1v-11.29h-17.46Z"/>
      <path class="cls-1" d="m4.65,118h1.24l.7-8.68c.05-.67.04-1.76.04-1.76h.04s.39,1.15.68,1.76l2.95,6.37h1.16l2.95-6.37c.29-.64.66-1.73.66-1.73h.04s-.02,1.06.04,1.73l.7,8.68h1.24l-1-12.4h-1.27l-3.29,7.29c-.29.64-.63,1.52-.63,1.52h-.04s-.32-.88-.61-1.52l-3.29-7.29h-1.29l-1,12.4h0Zm14.66-2.42c0,1.76,1.56,2.63,3.06,2.63,2.26,0,3.01-1.92,3.01-1.92h.04s-.04.3-.04.74v.97h1.16v-5.68c0-2.23-1.2-3.41-3.37-3.41-2.02,0-3.21,1-3.21,1l.57.92s1.06-.85,2.54-.85c1.29,0,2.24.58,2.24,2.3v.23h-.5c-1.56,0-5.52.07-5.52,3.07h0Zm1.25-.07c0-1.96,2.83-2.01,4.25-2.01h.52v.39c0,1.54-1.04,3.3-2.76,3.3-1.34,0-2.01-.85-2.01-1.68h0Zm8.82,2.49h1.22v-4.25c0-.42.04-.83.14-1.2.41-1.46,1.74-2.51,3.28-2.51,1.74,0,1.95,1.24,1.95,2.63v5.33h1.22v-5.65c0-2.19-.79-3.44-3.01-3.44s-3.28,1.43-3.6,2.24h-.04s.04-.32.04-.7v-1.32h-1.2v8.87h0Zm10.54-3.23c0,2.31.89,3.44,3.01,3.44,1.99,0,3.17-1.38,3.53-2.24h.04s-.04.32-.04.7v1.32h1.18v-8.87h-1.22v4.25c0,1.92-1.27,3.71-3.33,3.71-1.74,0-1.95-1.24-1.95-2.63v-5.33h-1.22v5.65h0Zm10.97,3.23h1.22v-7.76h2.31v-1h-2.31v-.42c0-1.98,1.32-2.23,2.02-2.23.25,0,.43.04.43.04v-1.07s-.21-.04-.56-.04c-1.02,0-3.11.37-3.11,3.3v.42h-1.13v1h1.13v7.76h0Zm4.64-2.42c0,1.76,1.56,2.63,3.06,2.63,2.26,0,3.01-1.92,3.01-1.92h.04s-.04.3-.04.74v.97h1.16v-5.68c0-2.23-1.2-3.41-3.37-3.41-2.03,0-3.21,1-3.21,1l.57.92s1.06-.85,2.54-.85c1.29,0,2.24.58,2.24,2.3v.23h-.5c-1.56,0-5.52.07-5.52,3.07h0Zm1.25-.07c0-1.96,2.83-2.01,4.25-2.01h.52v.39c0,1.54-1.04,3.3-2.76,3.3-1.34,0-2.01-.85-2.01-1.68h0Zm8.23-1.94c0,2.75,2.06,4.64,4.73,4.64,2.29,0,3.51-1.39,3.51-1.39l-.55-.94s-1.06,1.25-2.88,1.25c-1.99,0-3.55-1.48-3.55-3.56s1.54-3.57,3.51-3.57c1.63,0,2.63,1.08,2.63,1.08l.63-.9s-1.09-1.27-3.29-1.27c-2.65,0-4.73,1.92-4.73,4.66h0Zm10.93,1.2c0,2.96,2.09,3.3,3.13,3.3.32,0,.52-.03.52-.03v-1.07s-.16.03-.41.03c-.68,0-2.02-.26-2.02-2.35v-4.41h2.26v-1h-2.26v-2.56h-1.2v2.56h-1.2v1h1.18v4.54h0Zm5.43,0c0,2.31.89,3.44,3.01,3.44,1.99,0,3.17-1.38,3.53-2.24h.04s-.04.32-.04.7v1.32h1.18v-8.87h-1.21v4.25c0,1.92-1.27,3.71-3.33,3.71-1.74,0-1.95-1.24-1.95-2.63v-5.33h-1.22v5.65h0Zm10.64,3.23h1.22v-3.74c0-.57.07-1.16.25-1.73.39-1.31,1.34-2.29,2.62-2.29.23,0,.45.04.45.04v-1.18s-.23-.05-.48-.05c-1.42,0-2.42,1.02-2.85,2.36h-.04s.04-.32.04-.7v-1.57h-1.2v8.87h0Zm6.34-10.9h1.27v-1.5h-1.27v1.5h0Zm.04,10.9h1.22v-8.87h-1.22v8.87h0Zm4.12,0h1.22v-4.25c0-.42.04-.83.14-1.2.41-1.46,1.74-2.51,3.28-2.51,1.74,0,1.95,1.24,1.95,2.63v5.33h1.22v-5.65c0-2.19-.79-3.44-3.01-3.44s-3.28,1.43-3.6,2.24h-.04s.04-.32.04-.7v-1.32h-1.2v8.87h0Zm11.4,2.01l-.46.99c.88.44,1.92.7,2.96.7,2.2,0,4.32-1.09,4.32-3.92v-8.66h-1.18v.97c0,.19.02.3.02.3h-.04s-.59-1.48-2.97-1.48-3.9,1.82-3.9,4.48,1.59,4.55,4.01,4.55c1.4,0,2.31-.56,2.85-1.55h.04s-.04.3-.04.64v.81c0,1.98-1.4,2.79-3.15,2.79-1.33,0-2.44-.62-2.44-.62h0Zm2.94-3.14c-1.79,0-2.96-1.38-2.96-3.49s1.02-3.37,2.78-3.37c1.6,0,2.85.79,2.85,3.39s-1.25,3.48-2.67,3.48h0Zm12.25,1.13h1.23v-5.22h3.17l2.85,5.22h1.41l-2.74-4.99c-.2-.33-.32-.49-.32-.49v-.03c1.42-.39,2.38-1.68,2.38-3.35,0-1.5-.71-2.68-1.9-3.19-.5-.21-1.07-.33-2.37-.33h-3.72v12.4h0Zm1.23-6.32v-5h2.54c.97,0,1.42.11,1.79.3.74.39,1.15,1.15,1.15,2.17,0,1.55-.97,2.52-2.49,2.52h-2.99Zm8.91,1.89c0,2.74,2.02,4.64,4.71,4.64,2.03,0,3.33-1.23,3.33-1.23l-.55-.92s-1.09,1.08-2.74,1.08c-1.86,0-3.44-1.23-3.49-3.51h6.91s.04-.4.04-.62c0-2.21-1.27-4.09-3.76-4.09s-4.44,1.75-4.44,4.66h0Zm1.31-.93c.29-1.78,1.59-2.72,3.1-2.72,1.34,0,2.49.87,2.56,2.72h-5.66Zm8.54,4.29s1.14,1.29,3.33,1.29c1.81,0,3.08-1.04,3.08-2.49,0-2.93-4.85-2.4-4.85-4.36,0-.99.88-1.38,1.79-1.38,1.49,0,2.26.81,2.26.81l.56-.92s-.88-.97-2.78-.97c-1.63,0-3.08.86-3.08,2.45,0,2.89,4.85,2.42,4.85,4.36,0,.94-.84,1.41-1.81,1.41-1.68,0-2.69-1.08-2.69-1.08l-.66.86h0Zm8.01-3.41c0,2.68,2.13,4.69,4.76,4.69s4.76-2.01,4.76-4.69-2.13-4.6-4.76-4.6-4.76,1.97-4.76,4.6h0Zm1.25,0c0-2.01,1.58-3.51,3.51-3.51s3.51,1.5,3.51,3.51-1.58,3.62-3.51,3.62-3.51-1.55-3.51-3.62h0Zm10.51,1.25c0,2.31.89,3.44,3.01,3.44,1.99,0,3.17-1.38,3.53-2.24h.04s-.04.32-.04.7v1.32h1.18v-8.87h-1.22v4.25c0,1.92-1.27,3.71-3.33,3.71-1.74,0-1.95-1.24-1.95-2.63v-5.33h-1.22v5.65h0Zm10.63,3.23h1.22v-3.74c0-.57.07-1.16.25-1.73.39-1.31,1.34-2.29,2.62-2.29.23,0,.45.04.45.04v-1.18s-.23-.05-.48-.05c-1.41,0-2.42,1.02-2.85,2.36h-.04s.04-.32.04-.7v-1.57h-1.2v8.87h0Zm5.51-4.43c0,2.75,2.06,4.64,4.73,4.64,2.29,0,3.51-1.39,3.51-1.39l-.56-.94s-1.06,1.25-2.88,1.25c-1.99,0-3.55-1.48-3.55-3.56s1.54-3.57,3.51-3.57c1.63,0,2.63,1.08,2.63,1.08l.63-.9s-1.09-1.27-3.3-1.27c-2.65,0-4.73,1.92-4.73,4.66h0Zm9.52,0c0,2.74,2.02,4.64,4.71,4.64,2.03,0,3.33-1.23,3.33-1.23l-.55-.92s-1.09,1.08-2.74,1.08c-1.86,0-3.44-1.23-3.49-3.51h6.91s.04-.4.04-.62c0-2.21-1.27-4.09-3.76-4.09s-4.44,1.75-4.44,4.66h0Zm1.3-.93c.29-1.78,1.59-2.72,3.1-2.72,1.34,0,2.49.87,2.56,2.72h-5.66Zm13.82-.92c0,3.62,2.65,6.49,6.37,6.49,3.1,0,4.82-1.92,4.82-1.92l-.72-.86s-1.54,1.66-4.08,1.66c-2.99,0-5.1-2.42-5.1-5.38s2.11-5.19,5.07-5.19c2.36,0,3.83,1.38,3.83,1.38l.66-.9s-1.52-1.6-4.53-1.6c-3.6,0-6.32,2.73-6.32,6.33h0Zm12.76,1.85c0,2.74,2.02,4.64,4.71,4.64,2.03,0,3.33-1.23,3.33-1.23l-.56-.92s-1.09,1.08-2.74,1.08c-1.86,0-3.44-1.23-3.49-3.51h6.91s.04-.4.04-.62c0-2.21-1.27-4.09-3.76-4.09s-4.44,1.75-4.44,4.66h0Zm1.3-.93c.29-1.78,1.6-2.72,3.1-2.72,1.34,0,2.49.87,2.56,2.72h-5.66Zm9.3,5.36h1.21v-4.25c0-.42.04-.83.14-1.2.41-1.46,1.74-2.51,3.28-2.51,1.74,0,1.95,1.24,1.95,2.63v5.33h1.21v-5.65c0-2.19-.79-3.44-3.01-3.44s-3.28,1.43-3.6,2.24h-.04s.04-.32.04-.7v-1.32h-1.2v8.87h0Zm10.82-3.23c0,2.96,2.09,3.3,3.13,3.3.32,0,.52-.03.52-.03v-1.07s-.16.03-.41.03c-.68,0-2.02-.26-2.02-2.35v-4.41h2.26v-1h-2.26v-2.56h-1.2v2.56h-1.2v1h1.18v4.54h0Zm5.58,3.23h1.21v-3.74c0-.57.07-1.16.25-1.73.39-1.31,1.34-2.29,2.62-2.29.23,0,.45.04.45.04v-1.18s-.23-.05-.48-.05c-1.42,0-2.42,1.02-2.85,2.36h-.04s.04-.32.04-.7v-1.57h-1.2v8.87h0Zm5.56-4.43c0,2.74,2.02,4.64,4.71,4.64,2.02,0,3.33-1.23,3.33-1.23l-.55-.92s-1.09,1.08-2.74,1.08c-1.86,0-3.44-1.23-3.49-3.51h6.91s.04-.4.04-.62c0-2.21-1.27-4.09-3.76-4.09s-4.44,1.75-4.44,4.66h0Zm1.31-.93c.29-1.78,1.6-2.72,3.1-2.72,1.34,0,2.49.87,2.56,2.72h-5.66Z"/>
    </g>
  </g>
</svg>